<mxfile host="app.diagrams.net" modified="2024-03-12T08:20:46.304Z" agent="Mozilla/5.0 (Windows NT 10.0; Win64; x64; rv:123.0) Gecko/20100101 Firefox/123.0" version="24.0.5" etag="zQtYe1w5zhboAu_pC3ST" type="github">
  <diagram name="Page-1" id="P0ZzFUm19DZFmJujOOoA">
    <mxGraphModel>
      <root>
        <mxCell id="0" />
        <mxCell id="1" parent="0" />
      </root>
    </mxGraphModel>
  </diagram>
</mxfile>
